<?xml version="1.0" standalone="no"?>
<!DOCTYPE svg PUBLIC "-//W3C//DTD SVG 20010904//EN"
 "http://www.w3.org/TR/2001/REC-SVG-20010904/DTD/svg10.dtd">
<svg version="1.0" xmlns="http://www.w3.org/2000/svg"
 width="532.000000pt" height="515.000000pt" viewBox="0 0 532.000000 515.000000"
 preserveAspectRatio="xMidYMid meet">

<g transform="translate(0.000000,515.000000) scale(0.100000,-0.100000)"
fill="#000000" stroke="none">
<path d="M1685 5139 c-435 -12 -1032 -46 -1228 -69 -244 -30 -363 -195 -383
-530 -12 -199 21 -401 80 -490 103 -156 255 -213 646 -245 867 -70 1149 -74
3582 -48 708 7 666 2 707 85 27 57 27 106 -2 149 -12 19 -73 68 -135 110 -266
178 -338 285 -279 411 42 90 128 174 322 312 44 31 88 71 98 89 36 66 13 151
-53 198 -23 16 -97 18 -1070 28 -1136 12 -1848 12 -2285 0z m2220 -218 c347
-11 661 -21 699 -21 l70 0 -45 -37 c-149 -126 -234 -268 -246 -414 -10 -117
35 -240 123 -339 l43 -47 -597 -7 c-328 -3 -826 -13 -1107 -21 -280 -8 -841
-19 -1246 -25 -831 -10 -1126 -2 -1199 35 -178 91 -218 580 -64 782 42 55 63
61 305 78 232 16 551 33 558 29 1 -2 -12 -54 -30 -116 -73 -246 -30 -398 112
-398 61 0 109 28 136 80 28 53 28 66 3 172 -10 46 -24 115 -30 153 -5 39 -12
80 -15 92 -5 20 -1 22 47 26 153 13 1895 -3 2483 -22z"/>
<path d="M1589 3286 c-2 -2 -238 -7 -524 -10 -286 -3 -547 -10 -579 -15 -273
-47 -416 -178 -463 -422 -21 -113 -13 -358 17 -477 33 -137 113 -274 197 -338
116 -89 225 -113 503 -114 107 0 461 -7 785 -15 1593 -39 2498 -44 2900 -15
225 16 417 39 467 56 63 21 108 67 108 110 0 51 -38 93 -388 428 -71 67 -82
83 -82 111 0 62 126 195 347 366 117 91 143 120 143 161 0 38 -24 84 -52 99
-52 28 -1945 78 -2949 79 -234 0 -428 -2 -430 -4z m2381 -216 c261 -5 535 -12
608 -16 l134 -6 -39 -31 c-89 -71 -261 -254 -289 -307 -36 -71 -39 -155 -6
-217 34 -65 119 -158 251 -278 l123 -110 -34 -8 c-18 -4 -127 -5 -243 -2 -305
9 -1023 34 -1140 40 -127 7 -1005 42 -1405 55 -168 6 -559 13 -870 16 -622 6
-609 5 -674 70 -73 75 -99 181 -100 410 -1 170 -1 170 27 213 65 98 143 119
502 137 154 7 300 13 324 14 l44 0 -7 -49 c-4 -27 -15 -75 -26 -107 -28 -80
-27 -171 3 -214 50 -74 127 -95 198 -54 72 41 83 113 42 264 -11 41 -24 96
-27 123 l-7 47 98 1 c54 1 217 5 363 8 422 11 1632 12 2150 1z"/>
<path d="M1326 1419 c-850 -8 -917 -11 -1004 -49 -110 -49 -209 -188 -253
-356 -29 -111 -37 -350 -15 -454 45 -211 184 -350 436 -434 299 -100 684 -117
1425 -66 268 19 864 29 1042 18 48 -3 84 19 121 73 20 28 23 43 19 88 -3 47
-9 59 -40 87 -59 54 -91 59 -402 59 -246 -1 -326 -5 -655 -38 -485 -47 -727
-61 -925 -53 -373 14 -593 81 -719 217 -64 69 -68 86 -69 269 0 198 43 319
129 367 37 20 62 23 280 33 131 5 282 10 335 10 l96 0 12 -102 c20 -160 39
-249 57 -269 21 -23 77 -25 98 -3 18 17 20 25 35 134 8 55 23 98 54 160 l44
85 129 6 c71 4 759 10 1529 13 770 3 1450 8 1512 10 l111 4 -138 -136 c-163
-162 -195 -215 -195 -322 0 -105 33 -160 190 -317 l133 -131 -392 5 c-390 6
-391 6 -418 -16 -55 -44 -54 -126 2 -176 21 -19 34 -20 369 -17 190 1 436 5
546 8 l199 7 28 28 c27 27 36 67 22 103 -3 8 -90 87 -193 175 -214 183 -301
278 -301 329 0 18 6 45 14 60 18 34 150 162 332 320 103 88 143 130 147 149 7
36 -15 88 -42 103 -16 8 -384 12 -1334 16 -722 2 -1359 6 -1417 7 -58 2 -478
0 -934 -4z"/>
</g>
</svg>
